<mxfile host="app.diagrams.net" agent="Mozilla/5.0 (Windows NT 10.0; Win64; x64) AppleWebKit/537.36 (KHTML, like Gecko) Chrome/128.0.0.0 Safari/537.36" version="24.7.8">
  <diagram name="Page-1" id="jfNORzDOGaG3sof99er5">
    <mxGraphModel dx="1050" dy="557" grid="1" gridSize="10" guides="1" tooltips="1" connect="1" arrows="1" fold="1" page="1" pageScale="1" pageWidth="827" pageHeight="1169" math="0" shadow="0">
      <root>
        <mxCell id="0" />
        <mxCell id="1" parent="0" />
        <mxCell id="P5BEL071RSo7zSWD4PCP-2" value="vm_ubuntu" style="image;sketch=0;aspect=fixed;html=1;points=[];align=center;fontSize=12;image=img/lib/mscae/VM_Linux.svg;" vertex="1" parent="1">
          <mxGeometry x="290" y="160" width="76.09" height="70" as="geometry" />
        </mxCell>
        <mxCell id="P5BEL071RSo7zSWD4PCP-3" value="" style="shape=image;html=1;verticalAlign=top;verticalLabelPosition=bottom;labelBackgroundColor=#ffffff;imageAspect=0;aspect=fixed;image=https://cdn1.iconfinder.com/data/icons/operating-system-flat-1/30/ubuntu-128.png" vertex="1" parent="1">
          <mxGeometry x="270" y="170" width="40" height="40" as="geometry" />
        </mxCell>
        <mxCell id="P5BEL071RSo7zSWD4PCP-4" value="" style="rounded=1;whiteSpace=wrap;html=1;fillColor=none;" vertex="1" parent="1">
          <mxGeometry x="267" y="150" width="115" height="115" as="geometry" />
        </mxCell>
        <mxCell id="P5BEL071RSo7zSWD4PCP-5" value="vnet_ubuntu" style="image;aspect=fixed;html=1;points=[];align=center;fontSize=12;image=img/lib/azure2/networking/Virtual_Networks.svg;" vertex="1" parent="1">
          <mxGeometry x="380" y="270" width="50.25" height="30" as="geometry" />
        </mxCell>
        <mxCell id="P5BEL071RSo7zSWD4PCP-6" value="" style="rounded=1;whiteSpace=wrap;html=1;fillColor=none;" vertex="1" parent="1">
          <mxGeometry x="220" y="120" width="240" height="210" as="geometry" />
        </mxCell>
        <mxCell id="P5BEL071RSo7zSWD4PCP-7" value="rg_ubuntu" style="image;sketch=0;aspect=fixed;html=1;points=[];align=center;fontSize=12;image=img/lib/mscae/ResourceGroup.svg;" vertex="1" parent="1">
          <mxGeometry x="460" y="330" width="50" height="40" as="geometry" />
        </mxCell>
        <mxCell id="P5BEL071RSo7zSWD4PCP-8" value="" style="rounded=1;whiteSpace=wrap;html=1;fillColor=none;" vertex="1" parent="1">
          <mxGeometry x="190" y="100" width="340" height="310" as="geometry" />
        </mxCell>
        <mxCell id="P5BEL071RSo7zSWD4PCP-9" value="Azure for Students" style="image;aspect=fixed;html=1;points=[];align=center;fontSize=12;image=img/lib/azure2/general/Subscriptions.svg;" vertex="1" parent="1">
          <mxGeometry x="210" y="70" width="44" height="71" as="geometry" />
        </mxCell>
      </root>
    </mxGraphModel>
  </diagram>
</mxfile>
